<?xml version="1.0" encoding="UTF-8"?><svg id="Ebene_1" xmlns="http://www.w3.org/2000/svg" xmlns:xlink="http://www.w3.org/1999/xlink" viewBox="0 0 167.39 193.54"><defs><style>.cls-1{clip-path:url(#clippath);}.cls-2{fill:none;}.cls-3{fill:#009cbc;}.cls-4{fill:#1d1d1b;}</style><clipPath id="clippath"><rect class="cls-2" x="0" width="167.39" height="193.54"/></clipPath></defs><polygon class="cls-3" points="83.7 142.05 122.86 119.45 122.86 74.23 83.7 51.62 44.54 74.23 44.54 119.45 83.7 142.05"/><g class="cls-1"><path class="cls-4" d="M83.7,43.51V0L0,48.32v96.83s27.75,16.04,27.75,16.04c-.04,.33-.06,.67-.06,1.01,0,2.43,.99,4.65,2.58,6.24,1.59,1.59,3.81,2.59,6.24,2.58,2.43,0,4.65-.99,6.24-2.58,1.59-1.59,2.59-3.81,2.58-6.24,0-2.43-.99-4.65-2.58-6.24-1.59-1.59-3.81-2.59-6.24-2.58-1.96,0-3.78,.65-5.24,1.74l-24.24-14.01V52.38S76.67,12.17,76.67,12.17V47.56l7.03-4.06Z"/><path class="cls-4" d="M167.38,48.39l-27.74-16.04c.04-.33,.06-.67,.06-1.01,0-2.43-.99-4.65-2.58-6.24-1.59-1.59-3.81-2.59-6.24-2.59-2.43,0-4.65,.99-6.24,2.59-1.59,1.59-2.59,3.81-2.58,6.24,0,2.43,.99,4.65,2.58,6.24,1.59,1.59,3.81,2.59,6.24,2.59,1.96,0,3.78-.65,5.24-1.74l24.24,14.01v88.72s-69.63,40.21-69.63,40.21v-35.39l-7.03,4.06v43.51l83.7-48.32V48.39Z"/></g></svg>